<svg xmlns="http://www.w3.org/2000/svg" width="24" height="22.605" viewBox="0 0 24 22.605"><defs><style>.a{fill:#33322f;}</style></defs><path class="a" d="M5.626,24.135H23.081a3.342,3.342,0,0,0,2.451-.815,3.261,3.261,0,0,0,.821-2.414V14.929a4.828,4.828,0,0,0-.123-1.218,2.56,2.56,0,0,0-.477-.907L22.33,8.481A15.346,15.346,0,0,0,21.214,7.2a3.62,3.62,0,0,0-1.132-.789,3.87,3.87,0,0,0-1.54-.268H17.116V7.7H18.65a1.753,1.753,0,0,1,1.051.381,4.6,4.6,0,0,1,.88.842l3.54,4.56q.279.354.188.515t-.488.161H17.417a.7.7,0,0,0-.6.247.9.9,0,0,0-.188.558v.032a2.368,2.368,0,0,1-.279,1.105,2.4,2.4,0,0,1-.789.885,2.085,2.085,0,0,1-1.207.349,2.11,2.11,0,0,1-1.212-.349,2.43,2.43,0,0,1-1.073-1.99v-.032a.882.882,0,0,0-.193-.558.69.69,0,0,0-.579-.247H4.9q-.408,0-.488-.166t.188-.51l3.53-4.56A4.271,4.271,0,0,1,9,8.079,1.789,1.789,0,0,1,10.067,7.7H11.6V6.143H10.164a3.878,3.878,0,0,0-1.534.268A3.6,3.6,0,0,0,7.493,7.2,15.346,15.346,0,0,0,6.377,8.481L2.954,12.805a2.56,2.56,0,0,0-.477.907,4.828,4.828,0,0,0-.123,1.218v5.976a3.249,3.249,0,0,0,.826,2.414A3.345,3.345,0,0,0,5.626,24.135Zm.064-1.845a1.523,1.523,0,0,1-1.116-.381,1.523,1.523,0,0,1-.386-1.132V15.809h6.233a3.736,3.736,0,0,0,.692,1.652,3.814,3.814,0,0,0,1.379,1.148,4.362,4.362,0,0,0,3.728,0,3.826,3.826,0,0,0,1.373-1.148,3.736,3.736,0,0,0,.692-1.652H24.53v4.967a1.5,1.5,0,0,1-.4,1.132,1.546,1.546,0,0,1-1.116.381Zm8.669-8.229a.767.767,0,0,0,.316-.07A1.228,1.228,0,0,0,15,13.76l3.358-3.24a.755.755,0,0,0,.257-.558.719.719,0,0,0-.231-.542.806.806,0,0,0-1.153.048L15.8,11l-.644.73.086-1.523V2.4a.841.841,0,0,0-.257-.606.868.868,0,0,0-1.245,0,.841.841,0,0,0-.257.606v7.81l.086,1.523L12.911,11,11.462,9.469a.733.733,0,0,0-.59-.268.754.754,0,0,0-.547.22.727.727,0,0,0-.225.542.77.77,0,0,0,.247.558L13.7,13.76a1.441,1.441,0,0,0,.333.231A.755.755,0,0,0,14.359,14.06Z" transform="translate(-2.354 -1.529)"/></svg>