<svg xmlns="http://www.w3.org/2000/svg" width="42" height="41.528" viewBox="0 0 42 41.528"><defs><style>.a{fill:#ffc857;}.b{fill:#33322f;}</style></defs><g transform="translate(-40.5 -124.078)"><ellipse class="a" cx="21" cy="20.764" rx="21" ry="20.764" transform="translate(40.5 124.078)"/><path class="b" d="M10.33,19.256H22.4a.841.841,0,0,0,.6-.241.825.825,0,0,0,.252-.624A.812.812,0,0,0,23,17.777a.841.841,0,0,0-.6-.241H10.538a.834.834,0,0,1-.646-.263,1.348,1.348,0,0,1-.318-.69L7.909,5.136A1.68,1.68,0,0,0,7.5,4.172a1.58,1.58,0,0,0-1.15-.329H2.761a.833.833,0,0,0-.613.268.884.884,0,0,0-.263.641.853.853,0,0,0,.263.624.841.841,0,0,0,.613.263H6.124L7.756,16.791a3.222,3.222,0,0,0,.789,1.8A2.335,2.335,0,0,0,10.33,19.256ZM8.479,15.51H22.456a2.339,2.339,0,0,0,1.8-.668,3.323,3.323,0,0,0,.8-1.818L25.841,7.7a1.741,1.741,0,0,0,.033-.219q.011-.12.011-.2a.878.878,0,0,0-.279-.668,1.082,1.082,0,0,0-.772-.263H7.559l.022,1.72H23.913l-.69,4.776a1.266,1.266,0,0,1-.3.679.831.831,0,0,1-.646.252L8.457,13.79Zm2.684,8.862a1.7,1.7,0,0,0,1.243-.5,1.752,1.752,0,0,0,0-2.47,1.692,1.692,0,0,0-1.243-.509,1.747,1.747,0,0,0-1.517.854,1.7,1.7,0,0,0-.236.887,1.673,1.673,0,0,0,.509,1.238A1.7,1.7,0,0,0,11.163,24.371Zm9.639,0a1.742,1.742,0,1,0,0-3.483,1.71,1.71,0,0,0-1.249.509,1.739,1.739,0,0,0,0,2.47A1.719,1.719,0,0,0,20.8,24.371Z" transform="translate(46.615 132.234)"/></g></svg>