<svg xmlns="http://www.w3.org/2000/svg" width="24" height="24" viewBox="0 0 24 24"><defs><style>.a{fill:#33322f;}</style></defs><path class="a" d="M15.739,27.131a1.45,1.45,0,0,0,1.1-.487,3.946,3.946,0,0,0,.77-1.306L25.1,5.755a4.755,4.755,0,0,0,.235-.728,2.814,2.814,0,0,0,.078-.62,1.26,1.26,0,0,0-.343-.933,1.26,1.26,0,0,0-.933-.343,2.591,2.591,0,0,0-.626.084,6.691,6.691,0,0,0-.722.229L3.125,10.978a3.689,3.689,0,0,0-1.222.728,1.444,1.444,0,0,0-.487,1.1,1.318,1.318,0,0,0,.542,1.168A4.962,4.962,0,0,0,3.33,14.6l8.209,2.407,2.383,8.124a5.55,5.55,0,0,0,.638,1.432A1.311,1.311,0,0,0,15.739,27.131ZM12.128,15.083,4.7,12.808a.483.483,0,0,1-.181-.078.131.131,0,0,1-.048-.1.16.16,0,0,1,.042-.108.345.345,0,0,1,.15-.084l14.4-5.476q.7-.265,1.39-.6t1.414-.656q-.6.481-1.264,1.029T19.446,7.765Zm3.8,9.015a.133.133,0,0,1-.114-.06.648.648,0,0,1-.078-.193l-2.275-7.426L20.782,9.1q.469-.481,1.029-1.168l1.041-1.276q-.325.722-.662,1.42t-.6,1.408l-5.476,14.4a.557.557,0,0,1-.078.162A.126.126,0,0,1,15.932,24.1Z" transform="translate(-1.416 -3.131)"/></svg>