<svg xmlns="http://www.w3.org/2000/svg" width="41.728" height="41.728" viewBox="0 0 41.728 41.728"><defs><style>.a{fill:#edeff2;}.b{fill:#33322f;stroke:#edeff2;stroke-width:0.25px;}</style></defs><g transform="translate(-286 -124)"><circle class="a" cx="20.864" cy="20.864" r="20.864" transform="translate(286 124)"/><path class="b" d="M13.189,22.858a1.192,1.192,0,0,0,.9-.4,3.244,3.244,0,0,0,.633-1.073l6.164-16.1a3.909,3.909,0,0,0,.193-.6,2.313,2.313,0,0,0,.064-.51.973.973,0,0,0-1.049-1.049,2.13,2.13,0,0,0-.514.069,5.5,5.5,0,0,0-.594.188L2.821,9.581a3.032,3.032,0,0,0-1,.6,1.187,1.187,0,0,0-.4.905,1.084,1.084,0,0,0,.445.96,4.079,4.079,0,0,0,1.128.514l6.747,1.979L11.7,21.216a4.562,4.562,0,0,0,.524,1.177A1.077,1.077,0,0,0,13.189,22.858Zm-2.968-9.9-6.1-1.87a.4.4,0,0,1-.148-.064.108.108,0,0,1-.04-.084.132.132,0,0,1,.035-.089.283.283,0,0,1,.124-.069l11.833-4.5q.574-.218,1.143-.49t1.162-.539q-.495.4-1.039.846t-.95.846Zm3.126,7.41a.109.109,0,0,1-.094-.049.532.532,0,0,1-.064-.158l-1.87-6.1,6.015-6.015q.386-.4.846-.96l.856-1.049q-.267.594-.544,1.167T18,8.355L13.5,20.187a.458.458,0,0,1-.064.134A.1.1,0,0,1,13.348,20.365Z" transform="translate(295.72 132.006)"/></g></svg>