<svg xmlns="http://www.w3.org/2000/svg" width="321" height="321" viewBox="0 0 321 321"><defs><style>.a{fill:#fff7e1;stroke:#fff7e1;}.b,.f{fill:none;}.b,.c,.d{stroke:#065;stroke-width:3px;}.b,.c{stroke-miterlimit:10;}.c,.d{fill:#79baaf;}.e{stroke:none;}</style></defs><g transform="translate(-57 -2892)"><g class="a" transform="translate(57 2892)"><rect class="e" width="321" height="321" rx="160.5"/><rect class="f" x="0.5" y="0.5" width="320" height="320" rx="160"/></g><g transform="translate(118.491 2954.858)"><g transform="translate(0 0)"><g transform="translate(18.355)"><path class="b" d="M309.661,246.148V260.61a16.616,16.616,0,0,0,16.616,16.616h0a16.617,16.617,0,0,0,16.616-16.616V124.2h0a5.435,5.435,0,0,0,5.435-5.435v-4.1a5.437,5.437,0,0,0-5.435-5.438H309.661a5.437,5.437,0,0,0-5.435,5.438v4.1a5.435,5.435,0,0,0,5.435,5.435h0v43.894" transform="translate(-168.666 -87.733)"/><path class="b" d="M341.97,145.877v-30.36h0a5.435,5.435,0,0,0,5.435-5.435v-4.1a5.435,5.435,0,0,0-5.435-5.435H308.739a5.435,5.435,0,0,0-5.435,5.435v4.1a5.435,5.435,0,0,0,5.435,5.435h0v30.36a75.9,75.9,0,1,0,33.231,0Z" transform="translate(-249.457 -100.542)"/><path class="c" d="M369.952,150.42a56.3,56.3,0,0,1-112.562,2.035s29.875,24.546,62.361,8.027S369.952,150.42,369.952,150.42Z" transform="translate(-237.756 -28.798)"/><path class="c" d="M310.785,188.7v47.06a5.708,5.708,0,0,0,5.708,5.71h0a5.709,5.709,0,0,0,5.71-5.71V121.71H310.785Z" transform="translate(-158.99 -69.316)"/><circle class="b" cx="10.049" cy="10.049" r="10.049" transform="translate(29.687 92.865)"/><path class="c" d="M270.651,134.882a7.846,7.846,0,1,0,7.846-7.849A7.847,7.847,0,0,0,270.651,134.882Z" transform="translate(-218.194 -61.464)"/><path class="b" d="M295.652,132a41.825,41.825,0,0,1,13.91,23.544" transform="translate(-181.313 -54.141)"/><path class="d" d="M298.15,131.062a3.744,3.744,0,1,1-3.742-3.742A3.743,3.743,0,0,1,298.15,131.062Z" transform="translate(-188.673 -61.04)"/></g><g transform="translate(0 10.2)"><line class="b" x2="37.989" y2="37.989"/><line class="b" x1="37.989" y2="37.989"/></g></g></g></g></svg>