<svg xmlns="http://www.w3.org/2000/svg" width="18.984" height="18.984" viewBox="0 0 18.984 18.984"><defs><style>.a{fill:#f29722;}</style></defs><path class="a" d="M11.143,21.822a9.111,9.111,0,0,0,3.672-.747A9.726,9.726,0,0,0,19.893,16a9.43,9.43,0,0,0,0-7.334A9.731,9.731,0,0,0,14.8,3.58a9.406,9.406,0,0,0-7.324,0A9.731,9.731,0,0,0,2.393,8.663,9.4,9.4,0,0,0,2.4,16,9.758,9.758,0,0,0,7.48,21.075,9.087,9.087,0,0,0,11.143,21.822Zm-1.035-4.951a.968.968,0,0,1-.464-.112,1.249,1.249,0,0,1-.4-.356L6.963,13.609a.983.983,0,0,1-.186-.308.951.951,0,0,1-.059-.327.788.788,0,0,1,.234-.571.764.764,0,0,1,.566-.239.881.881,0,0,1,.381.083.951.951,0,0,1,.342.308l1.826,2.334,3.877-6.211a.829.829,0,0,1,.713-.449.912.912,0,0,1,.581.205.662.662,0,0,1,.259.547.784.784,0,0,1-.073.327,2.179,2.179,0,0,1-.171.308L10.928,16.4a1.089,1.089,0,0,1-.361.352A.909.909,0,0,1,10.107,16.871Z" transform="translate(-1.65 -2.838)"/></svg>