<svg xmlns="http://www.w3.org/2000/svg" width="42" height="41.605" viewBox="0 0 42 41.605"><defs><style>.a{fill:#ffc857;}.b{fill:#33322f;}</style></defs><g transform="translate(-1226.5 -1819.537)"><ellipse class="a" cx="21" cy="20.803" rx="21" ry="20.803" transform="translate(1226.5 1819.537)"/><path class="b" d="M5.332,20.387H20.215a2.675,2.675,0,0,0,2.017-.742,3.058,3.058,0,0,0,.718-2.207V7.242a2.974,2.974,0,0,0-.752-2.2,3.032,3.032,0,0,0-2.227-.747H5.088a2.665,2.665,0,0,0-2.017.747,3.061,3.061,0,0,0-.718,2.2v10.2a2.971,2.971,0,0,0,.752,2.207A3.045,3.045,0,0,0,5.332,20.387Zm-.02-1.592a1.4,1.4,0,0,1-1.021-.347,1.389,1.389,0,0,1-.356-1.04V7.271a1.375,1.375,0,0,1,.356-1.03,1.4,1.4,0,0,1,1.021-.347H19.99a1.408,1.408,0,0,1,1.016.347,1.378,1.378,0,0,1,.361,1.04V17.418a1.364,1.364,0,0,1-.361,1.03,1.408,1.408,0,0,1-1.016.347Zm7.354-3.965a2.429,2.429,0,0,0,.986-.215,3.276,3.276,0,0,0,.977-.7L22.09,6.578,21.055,5.523l-7.3,7.207a2.114,2.114,0,0,1-.557.42,1.206,1.206,0,0,1-.527.127,1.17,1.17,0,0,1-.527-.132,2.319,2.319,0,0,1-.557-.415L4.248,5.484,3.2,6.539l7.49,7.373a3.42,3.42,0,0,0,.981.7A2.417,2.417,0,0,0,12.666,14.83Zm8.271,4.248,1.045-1.055-5.928-5.869L15.01,13.2ZM3.34,18.023l1.045,1.055L10.322,13.2,9.277,12.154Z" transform="translate(1234.849 1828)"/></g></svg>