<svg xmlns="http://www.w3.org/2000/svg" width="321" height="321" viewBox="0 0 321 321"><defs><style>.a{fill:#fff7e1;}.b{fill:#79baaf;}.b,.c,.d,.e{stroke:#065;stroke-miterlimit:10;stroke-width:3px;}.c{fill:#87ba78;}.d{fill:#00997f;}.e{fill:none;}</style></defs><g transform="translate(-602 -2895)"><rect class="a" width="321" height="321" rx="160.5" transform="translate(602 2895)"/><g transform="translate(635.917 2952.281)"><g transform="translate(0 0)"><g transform="translate(57.418)"><path class="b" d="M326.659,285.573s-155.56,111.944,0,174.458C326.659,460.031,477.37,400.606,326.659,285.573Z" transform="translate(-257.521 -285.573)"/><path class="c" d="M284,306.871V457.7" transform="translate(-214.864 -251.262)"/><path class="d" d="M273.143,329.631l28.622,28.622,28.592-28.592" transform="translate(-232.355 -214.598)"/><path class="d" d="M273.143,311.21l28.622,28.622,28.592-28.592" transform="translate(-232.355 -244.273)"/></g><g transform="translate(0 49.208)"><path class="e" d="M310.888,307.365c-18.546-3.674-42.376-4.151-72.84-.06,0,0-30.84,189.15,123.359,123.359" transform="translate(-235.53 -304.42)"/><line class="e" x2="22.616" y2="22.616" transform="translate(125.877 126.245)"/><line class="e" x2="15.887" y2="15.887" transform="translate(41.838 42.206)"/><line class="e" x2="23.713" transform="translate(63.812 104.271)"/><line class="e" x2="30.64" transform="translate(29.802 70.261)"/></g><g transform="translate(103.654 49.073)"><path class="e" d="M335.855,307.172c18.545-3.673,40.929-3.874,71.4.217,0,0,30.84,189.15-123.359,123.359" transform="translate(-261.275 -304.368)"/><line class="e" x1="22.616" y2="22.616" transform="translate(0 126.38)"/><line class="e" x1="18.307" y2="18.307" transform="translate(88.348 42.341)"/><line class="e" x1="26.636" transform="translate(58.045 104.406)"/><line class="e" x1="33.137" transform="translate(85.555 70.396)"/></g></g></g></g></svg>