<svg xmlns="http://www.w3.org/2000/svg" width="42" height="42" viewBox="0 0 42 42"><defs><style>.a{fill:#ffc857;}.b{fill:#f8f8fa;}</style></defs><g transform="translate(-40 -124)"><circle class="a" cx="21" cy="21" r="21" transform="translate(40 124)"/><path class="b" d="M11.143,21.822a9.111,9.111,0,0,0,3.672-.747A9.726,9.726,0,0,0,19.893,16a9.43,9.43,0,0,0,0-7.334A9.731,9.731,0,0,0,14.8,3.58a9.406,9.406,0,0,0-7.324,0A9.731,9.731,0,0,0,2.393,8.663,9.4,9.4,0,0,0,2.4,16,9.758,9.758,0,0,0,7.48,21.075,9.087,9.087,0,0,0,11.143,21.822Zm0-1.748a7.577,7.577,0,0,1-3.008-.6,7.725,7.725,0,0,1-4.121-4.126,7.916,7.916,0,0,1,0-6.025A7.755,7.755,0,0,1,8.13,5.187a7.542,7.542,0,0,1,3-.6,7.591,7.591,0,0,1,3.022.6,7.8,7.8,0,0,1,4.131,4.136,7.577,7.577,0,0,1,.6,3.008,7.432,7.432,0,0,1-.6,3.018,7.873,7.873,0,0,1-1.66,2.466,7.707,7.707,0,0,1-2.461,1.66A7.626,7.626,0,0,1,11.143,20.074Zm-1.006-3.35a.9.9,0,0,0,.791-.459l4.2-6.553q.078-.146.151-.3a.731.731,0,0,0,.073-.312.639.639,0,0,0-.249-.522.86.86,0,0,0-.552-.2.816.816,0,0,0-.693.449l-3.75,6L8.35,12.555a1.029,1.029,0,0,0-.337-.288.827.827,0,0,0-.366-.083.732.732,0,0,0-.552.229.769.769,0,0,0-.22.552.988.988,0,0,0,.234.605l2.207,2.7a1.259,1.259,0,0,0,.381.352A.9.9,0,0,0,10.137,16.725Z" transform="translate(49.857 132.67)"/></g></svg>