<svg xmlns="http://www.w3.org/2000/svg" width="42" height="41.709" viewBox="0 0 42 41.709"><defs><style>.a{fill:#ffc857;}.b{fill:#33322f;stroke:#33322f;stroke-width:0.5px;}</style></defs><g transform="translate(-204 -124)"><ellipse class="a" cx="21" cy="20.855" rx="21" ry="20.855" transform="translate(204 124)"/><g transform="translate(213 133.146)"><path class="b" d="M1.688,21.522H2.85a2.624,2.624,0,0,0,5.176,0h7.949a2.624,2.624,0,0,0,5.176,0h1.162A1.69,1.69,0,0,0,24,19.834v-5.6s0-.007,0-.011,0-.016,0-.024,0-.013,0-.02,0-.015,0-.022,0-.014,0-.021,0-.014-.005-.021,0-.014-.006-.021l-.007-.02-.008-.02-.009-.019-.01-.019L23.931,14l-.013-.019-.012-.016-.015-.018-.007-.008-3.219-3.508a1.692,1.692,0,0,0-1.243-.546H13.593V5.351a1.69,1.69,0,0,0-1.687-1.688h-.967A4.363,4.363,0,0,0,9.714,1.211a4.12,4.12,0,0,0-5.836,0A4.359,4.359,0,0,0,2.655,3.663H1.688A1.69,1.69,0,0,0,0,5.351V19.834A1.69,1.69,0,0,0,1.688,21.522Zm3.75,1.313a1.75,1.75,0,1,1,1.75-1.75A1.75,1.75,0,0,1,5.438,22.834Zm13.125,0a1.75,1.75,0,1,1,1.75-1.75A1.75,1.75,0,0,1,18.563,22.834Zm4.563-3a.814.814,0,0,1-.813.813H21.15a2.624,2.624,0,0,0-5.176,0H13.593V14.674h9.532Zm-3.7-9.073a.815.815,0,0,1,.6.263L22.567,13.8H13.592V10.761ZM3.491,4.062A3.491,3.491,0,0,1,4.5,1.829a3.245,3.245,0,0,1,4.6,0A3.491,3.491,0,0,1,10.1,4.062,3.258,3.258,0,0,1,9.9,5.4a3.555,3.555,0,0,1-.765,1.21L6.8,9.108l-2.343-2.5A3.555,3.555,0,0,1,3.688,5.4,3.258,3.258,0,0,1,3.491,4.062ZM.875,5.351a.813.813,0,0,1,.813-.813h.931A4.206,4.206,0,0,0,2.866,5.7a4.421,4.421,0,0,0,.949,1.509l2.662,2.835a.437.437,0,0,0,.638,0L9.777,7.212A4.423,4.423,0,0,0,10.726,5.7a4.2,4.2,0,0,0,.248-1.165H11.9a.814.814,0,0,1,.813.813v15.3H8.025a2.625,2.625,0,0,0-5.176,0H1.688a.814.814,0,0,1-.813-.812Zm0,0" transform="translate(0 0)"/><path class="b" d="M77.9,34.008a1.692,1.692,0,1,0-1.657-1.692A1.676,1.676,0,0,0,77.9,34.008Zm0-2.669a.978.978,0,1,1-.943.978.962.962,0,0,1,.943-.978Zm0,0" transform="translate(-71.19 -28.687)"/></g></g></svg>