<svg xmlns="http://www.w3.org/2000/svg" xmlns:xlink="http://www.w3.org/1999/xlink" width="60.021" height="60.021" viewBox="0 0 60.021 60.021"><defs><style>.a{fill-rule:evenodd;fill:url(#a);}.b{fill:#fff;}</style><linearGradient id="a" x1="0.5" y1="1" x2="0.5" gradientUnits="objectBoundingBox"><stop offset="0" stop-color="#25cf43"/><stop offset="1" stop-color="#61fd7d"/></linearGradient></defs><g transform="translate(-349.978 -240.978)"><g transform="translate(349.978 240.978)"><path class="a" d="M409.994,285.768c0,.329-.01,1.041-.03,1.592a31.589,31.589,0,0,1-.317,3.877,12.92,12.92,0,0,1-1.087,3.249,11.565,11.565,0,0,1-5.092,5.086,12.939,12.939,0,0,1-3.267,1.087,31.717,31.717,0,0,1-3.848.311c-.551.02-1.264.029-1.591.029l-29.554,0c-.329,0-1.041-.01-1.592-.03a31.593,31.593,0,0,1-3.877-.316,12.913,12.913,0,0,1-3.248-1.087,11.565,11.565,0,0,1-5.086-5.092,12.939,12.939,0,0,1-1.087-3.267,31.7,31.7,0,0,1-.311-3.848c-.02-.551-.029-1.264-.029-1.591l0-29.554c0-.329.01-1.041.03-1.592a31.628,31.628,0,0,1,.317-3.877,12.919,12.919,0,0,1,1.087-3.249,11.566,11.566,0,0,1,5.092-5.086,12.939,12.939,0,0,1,3.267-1.087,31.709,31.709,0,0,1,3.848-.311c.551-.02,1.264-.029,1.591-.029l29.554,0c.329,0,1.041.01,1.592.03a31.615,31.615,0,0,1,3.877.317,12.915,12.915,0,0,1,3.249,1.087,11.565,11.565,0,0,1,5.086,5.092,12.942,12.942,0,0,1,1.087,3.267,31.712,31.712,0,0,1,.311,3.848c.02.551.029,1.264.029,1.591Z" transform="translate(-349.978 -240.978)"/></g><path class="b" d="M3.035,32.08a21.4,21.4,0,1,1,18.54,10.712h-.009a21.385,21.385,0,0,1-10.224-2.6L0,43.163ZM12.517,36.7a17.758,17.758,0,0,0,9.051,2.478h.007A17.78,17.78,0,1,0,6.511,30.849l.423.673-1.8,6.56,6.73-1.765Zm12.549-5.341a30.775,30.775,0,0,1-3.048-1.126c-5.363-2.315-8.865-7.713-9.132-8.07s-2.183-2.9-2.183-5.528a5.993,5.993,0,0,1,1.871-4.458A1.964,1.964,0,0,1,14,11.51c.356,0,.713,0,1.025.019.038,0,.079,0,.12,0,.311,0,.7,0,1.083.916.446,1.07,1.515,3.7,1.648,3.968a.984.984,0,0,1,.045.936,3.645,3.645,0,0,1-.535.892c-.267.312-.561.7-.8.936-.268.266-.546.556-.234,1.091a16.109,16.109,0,0,0,2.974,3.7,14.6,14.6,0,0,0,4.3,2.653c.534.267.846.223,1.158-.134s1.336-1.56,1.693-2.1.713-.446,1.2-.268,3.118,1.471,3.653,1.739.891.4,1.025.624a4.466,4.466,0,0,1-.312,2.541c-.445,1.248-2.581,2.388-3.608,2.541a8.748,8.748,0,0,1-1.3.1A6.789,6.789,0,0,1,25.066,31.361Z" transform="translate(359.064 249.073)"/></g></svg>